<svg width="20" height="20" viewBox="0 0 20 20" fill="none" xmlns="http://www.w3.org/2000/svg">
<path fill-rule="evenodd" clip-rule="evenodd" d="M4.84102 2.64336C3.9293 2.64336 3.18756 3.38413 3.18756 4.29466C3.18756 5.20579 3.9293 5.94704 4.84102 5.94704C5.75096 5.94704 6.49124 5.20579 6.49124 4.29466C6.49124 3.38413 5.75096 2.64336 4.84102 2.64336ZM3.41322 7.19855V16.3612H6.26331L6.26439 7.19855H3.41322ZM8.0517 7.19771V16.3603L10.8953 16.3614L10.8964 11.8276C10.8964 10.6639 11.0991 9.47431 12.6027 9.47431C14.0835 9.47431 14.0835 10.8781 14.0835 11.9032V16.3603L16.9303 16.3592V11.3351C16.9303 9.06782 16.5164 6.96979 13.5143 6.96979C12.1043 6.96979 11.1815 7.7668 10.8197 8.4494H10.7797L10.7798 7.19771H8.0517ZM18.3484 19.2H1.98547C1.20477 19.2 0.569611 18.5784 0.569611 17.8144V1.38454C0.569611 0.621101 1.20477 0 1.98547 0H18.3484C19.1321 0 19.7696 0.621101 19.7696 1.38454V17.8144C19.7696 18.5784 19.1321 19.2 18.3484 19.2Z" fill="white"/>
</svg>
