<svg width="56" height="56" viewBox="0 0 56 56" fill="none" xmlns="http://www.w3.org/2000/svg">
<path d="M50 8H46C45.4696 8 44.9609 8.21071 44.5858 8.58579C44.2107 8.96086 44 9.46957 44 10V12H24.7568L22.3184 4.332C21.7954 2.76639 20.6828 1.46624 19.2169 0.707564C17.7509 -0.0511112 16.047 -0.208576 14.4668 0.268599C13.6666 0.501363 12.9213 0.892455 12.2751 1.41868C11.6289 1.9449 11.095 2.59554 10.705 3.332C10.3264 4.04102 10.0942 4.81887 10.022 5.61937C9.94989 6.41988 10.0393 7.22672 10.285 7.992L11.56 12H2C1.46957 12 0.960859 12.2107 0.585786 12.5858C0.210714 12.9609 0 13.4696 0 14V54C0 54.5304 0.210714 55.0391 0.585786 55.4142C0.960859 55.7893 1.46957 56 2 56H50C51.5908 55.9983 53.1159 55.3656 54.2407 54.2407C55.3656 53.1159 55.9983 51.5908 56 50V14C55.9983 12.4092 55.3656 10.8841 54.2407 9.75929C53.1159 8.63445 51.5908 8.00175 50 8ZM25.834 28.5908L24.334 31.333L21.434 29.8466L15.98 12.6976L20.3654 11.392L25.834 28.5908ZM14.24 5.2032C14.3828 4.93774 14.5773 4.70362 14.8121 4.51468C15.047 4.32573 15.3173 4.18582 15.6072 4.1032C16.183 3.91899 16.808 3.96663 17.3492 4.23598C17.8905 4.50534 18.3053 4.97517 18.5056 5.5456L19.1528 7.58L14.7674 8.8856L14.0976 6.78C14.0143 6.52107 13.984 6.24802 14.0084 5.97711C14.0329 5.70621 14.1116 5.44301 14.24 5.2032ZM50 52H4V16H12.8316L17.873 31.8536C17.9532 32.1051 18.0823 32.3383 18.2529 32.5398C18.4235 32.7412 18.6323 32.9069 18.8672 33.0274L24.2422 35.78C24.5238 35.9247 24.8358 36.0001 25.1524 36H31C31.7956 36 32.5587 36.3161 33.1213 36.8787C33.6839 37.4413 34 38.2043 34 39C34 39.7957 33.6839 40.5587 33.1213 41.1213C32.5587 41.6839 31.7956 42 31 42H10V46H31C32.8565 46 34.637 45.2625 35.9497 43.9497C37.2625 42.637 38 40.8565 38 39C38 37.1435 37.2625 35.363 35.9497 34.0503C34.637 32.7375 32.8565 32 31 32H28.528L29.754 29.76C29.8844 29.5229 29.9651 29.2618 29.9913 28.9925C30.0175 28.7232 29.9886 28.4514 29.9064 28.1936L26.0288 16H44V46C44 46.5304 44.2107 47.0391 44.5858 47.4142C44.9609 47.7893 45.4696 48 46 48H50C50.5304 48 51.0391 48.2107 51.4142 48.5858C51.7893 48.9609 52 49.4696 52 50C52 50.5304 51.7893 51.0391 51.4142 51.4142C51.0391 51.7893 50.5304 52 50 52ZM52 44.3428C51.3578 44.1153 50.6813 43.9994 50 44H48V12H50C50.5303 12.0005 51.0387 12.2114 51.4136 12.5864C51.7886 12.9613 51.9995 13.4697 52 14V44.3428Z" fill="#FF872E"/>
</svg>
